<mxfile host="app.diagrams.net" agent="Mozilla/5.0 (Windows NT 10.0; Win64; x64) AppleWebKit/537.36 (KHTML, like Gecko) Chrome/128.0.0.0 Safari/537.36" version="24.7.8">
  <diagram name="第 1 页" id="NqYk-lmD2GM5Jos50nHO">
    <mxGraphModel dx="1434" dy="858" grid="1" gridSize="10" guides="1" tooltips="1" connect="1" arrows="1" fold="1" page="1" pageScale="1" pageWidth="2200" pageHeight="1600" math="0" shadow="0">
      <root>
        <mxCell id="0" />
        <mxCell id="1" parent="0" />
        <mxCell id="VhfgNzvpTJbDiKfUt8EI-8" style="edgeStyle=orthogonalEdgeStyle;rounded=0;orthogonalLoop=1;jettySize=auto;html=1;" edge="1" parent="1" source="VhfgNzvpTJbDiKfUt8EI-1" target="VhfgNzvpTJbDiKfUt8EI-4">
          <mxGeometry relative="1" as="geometry" />
        </mxCell>
        <mxCell id="VhfgNzvpTJbDiKfUt8EI-1" value="ProcessInstance" style="rounded=0;whiteSpace=wrap;html=1;" vertex="1" parent="1">
          <mxGeometry x="280" y="330" width="120" height="60" as="geometry" />
        </mxCell>
        <mxCell id="VhfgNzvpTJbDiKfUt8EI-3" style="edgeStyle=orthogonalEdgeStyle;rounded=0;orthogonalLoop=1;jettySize=auto;html=1;exitX=0.5;exitY=1;exitDx=0;exitDy=0;entryX=0.5;entryY=0;entryDx=0;entryDy=0;" edge="1" parent="1" source="VhfgNzvpTJbDiKfUt8EI-2" target="VhfgNzvpTJbDiKfUt8EI-1">
          <mxGeometry relative="1" as="geometry" />
        </mxCell>
        <mxCell id="VhfgNzvpTJbDiKfUt8EI-2" value="&lt;span style=&quot;color: rgb(59, 59, 59); font-family: Arial, Helvetica, sans-serif; font-size: 16.8px; font-weight: 700; text-align: left; background-color: rgb(173, 216, 230);&quot;&gt;ProcessDefinition&amp;nbsp;&lt;/span&gt;" style="rounded=1;whiteSpace=wrap;html=1;" vertex="1" parent="1">
          <mxGeometry x="250" y="150" width="190" height="50" as="geometry" />
        </mxCell>
        <mxCell id="VhfgNzvpTJbDiKfUt8EI-4" value="&lt;span style=&quot;color: rgb(59, 59, 59); font-family: Arial, Helvetica, sans-serif; font-size: 16.8px; font-weight: 700; text-align: left; background-color: rgb(173, 216, 230);&quot;&gt;ProcessNode&amp;nbsp;&lt;/span&gt;" style="rounded=1;whiteSpace=wrap;html=1;" vertex="1" parent="1">
          <mxGeometry x="620" y="340" width="190" height="70" as="geometry" />
        </mxCell>
        <mxCell id="VhfgNzvpTJbDiKfUt8EI-14" value="" style="swimlane;startSize=0;" vertex="1" parent="1">
          <mxGeometry x="160" y="640" width="780" height="200" as="geometry" />
        </mxCell>
        <mxCell id="VhfgNzvpTJbDiKfUt8EI-9" value="Verify Supporting Document Dispatch" style="rounded=1;whiteSpace=wrap;html=1;" vertex="1" parent="VhfgNzvpTJbDiKfUt8EI-14">
          <mxGeometry x="30" y="60" width="230" height="60" as="geometry" />
        </mxCell>
        <mxCell id="VhfgNzvpTJbDiKfUt8EI-10" value="Verify Supporting Document Approval Step1" style="rounded=1;whiteSpace=wrap;html=1;" vertex="1" parent="VhfgNzvpTJbDiKfUt8EI-14">
          <mxGeometry x="430" y="60" width="230" height="60" as="geometry" />
        </mxCell>
        <mxCell id="VhfgNzvpTJbDiKfUt8EI-15" value="" style="swimlane;startSize=0;" vertex="1" parent="1">
          <mxGeometry x="160" y="430" width="780" height="200" as="geometry" />
        </mxCell>
        <mxCell id="VhfgNzvpTJbDiKfUt8EI-19" style="edgeStyle=orthogonalEdgeStyle;rounded=0;orthogonalLoop=1;jettySize=auto;html=1;exitX=1;exitY=0.5;exitDx=0;exitDy=0;" edge="1" parent="VhfgNzvpTJbDiKfUt8EI-15" source="VhfgNzvpTJbDiKfUt8EI-16" target="VhfgNzvpTJbDiKfUt8EI-12">
          <mxGeometry relative="1" as="geometry" />
        </mxCell>
        <mxCell id="VhfgNzvpTJbDiKfUt8EI-16" value="" style="rounded=1;whiteSpace=wrap;html=1;" vertex="1" parent="VhfgNzvpTJbDiKfUt8EI-15">
          <mxGeometry x="70" y="70" width="120" height="60" as="geometry" />
        </mxCell>
        <mxCell id="VhfgNzvpTJbDiKfUt8EI-24" value="" style="edgeStyle=orthogonalEdgeStyle;rounded=0;orthogonalLoop=1;jettySize=auto;html=1;" edge="1" parent="VhfgNzvpTJbDiKfUt8EI-15" source="VhfgNzvpTJbDiKfUt8EI-12" target="VhfgNzvpTJbDiKfUt8EI-23">
          <mxGeometry relative="1" as="geometry" />
        </mxCell>
        <mxCell id="VhfgNzvpTJbDiKfUt8EI-12" value="" style="rounded=1;whiteSpace=wrap;html=1;" vertex="1" parent="VhfgNzvpTJbDiKfUt8EI-15">
          <mxGeometry x="310" y="70" width="120" height="60" as="geometry" />
        </mxCell>
        <mxCell id="VhfgNzvpTJbDiKfUt8EI-23" value="" style="whiteSpace=wrap;html=1;rounded=1;" vertex="1" parent="VhfgNzvpTJbDiKfUt8EI-15">
          <mxGeometry x="550" y="70" width="120" height="60" as="geometry" />
        </mxCell>
      </root>
    </mxGraphModel>
  </diagram>
</mxfile>
